<?xml version="1.0" encoding="UTF-8" standalone="no"?>
<!-- Uploaded to: SVG Repo, www.svgrepo.com, Generator: SVG Repo Mixer Tools -->
<svg
   width="64"
   height="64"
   viewBox="0 0 24 24"
   fill="none"
   version="1.1"
   id="svg6"
   sodipodi:docname="gun.svg"
   inkscape:version="1.3.2 (091e20e, 2024-03-02)"
   xmlns:inkscape="http://www.inkscape.org/namespaces/inkscape"
   xmlns:sodipodi="http://sodipodi.sourceforge.net/DTD/sodipodi-0.dtd"
   xmlns="http://www.w3.org/2000/svg"
   xmlns:svg="http://www.w3.org/2000/svg">
  <defs
     id="defs6" />
  <sodipodi:namedview
     id="namedview6"
     pagecolor="#ffffff"
     bordercolor="#000000"
     borderopacity="0.25"
     inkscape:showpageshadow="2"
     inkscape:pageopacity="0.0"
     inkscape:pagecheckerboard="0"
     inkscape:deskcolor="#d1d1d1"
     inkscape:zoom="12.390625"
     inkscape:cx="31.959648"
     inkscape:cy="32.040352"
     inkscape:window-width="1920"
     inkscape:window-height="1017"
     inkscape:window-x="-8"
     inkscape:window-y="-8"
     inkscape:window-maximized="1"
     inkscape:current-layer="svg6" />
  <path
     d="M17.844 19.3499L18.4502 20.3592C18.7303 20.8285 19.2974 21.0118 19.8055 20.8042C20.3135 20.5966 20.6139 20.0637 20.5186 19.5019L20.0573 16.7842C20.2798 16.6575 20.4704 16.5022 20.6277 16.3218L21.5794 15.1887C22.0402 14.6369 22.0366 13.7547 21.5724 13.2078L19.206 10.3707C18.7314 9.79973 17.854 9.79973 17.3794 10.3707L16.4277 11.5038C16.143 11.8398 16.0371 12.2858 16.1557 12.6975L15.3468 12.0673L13.8863 10.912C13.5262 10.6301 13.0645 10.5113 12.603 10.5891L4.20919 12.0006C3.12517 12.1812 2.22176 13.1417 2.04306 14.288L2 14.75V15.5C2 16.163 2.53726 16.7 3.20025 16.7H6.70025C6.77259 16.7 6.84074 16.6853 6.90317 16.6575L8.52737 15.9392C9.07185 15.7009 9.68266 15.867 10.1252 16.3094L11.5857 17.4647C12.0282 17.9071 12.639 18.0732 13.1835 17.8349L14.8077 17.1166C14.8701 17.0888 14.9382 17.0741 15.0106 17.0741H17.2002C17.6534 17.0741 18.0463 17.4079 18.0945 17.8643L17.844 19.3499ZM16.0699 15.3408C16.3263 15.4674 16.6212 15.4218 16.8397 15.2105L17.7914 14.0774C17.91 13.9351 17.9066 13.7371 17.7831 13.5985C17.6595 13.4599 17.4604 13.4116 17.2888 13.504L16.0699 14.1678V15.3408ZM17.2003 17.0741H15.0106C14.6293 17.0741 14.2884 17.3308 14.1676 17.6976L12.7071 18.8529C12.1626 19.2953 11.3537 19.0345 11.1685 18.4111L9.54427 17.6928C9.48184 17.665 9.41369 17.6503 9.34136 17.6503H3.20025C2.81895 17.6503 2.50025 17.3316 2.50025 16.9503V15.5H6.70025C7.24473 15.5 7.73479 15.7032 8.08332 16.0967L9.70752 16.815C10.252 17.0532 10.8628 16.8871 11.3053 16.4447L12.7658 15.2894C13.2082 14.847 13.819 14.6809 14.3635 14.9192L15.9877 15.6375C16.0501 15.6653 16.1182 15.68 16.1906 15.68H17.2003C17.6534 15.68 18.0463 16.0139 18.0945 16.4703L17.844 17.9559L17.2003 17.0741Z"
     fill="#222222"
     id="path2" />
  <path
     d="M10.7441 6.55181C10.2238 6.00298 9.37893 5.95254 8.80164 6.38626L3.92218 10.0898C3.34488 10.5235 3.32145 11.4118 3.86908 11.8791C4.41671 12.3464 5.30501 12.323 5.8823 11.8893L10.7618 8.18579C11.3391 7.75207 11.3625 6.86378 10.8149 6.39656L10.7441 6.55181ZM10.5898 9.50854C10.4571 9.60835 10.2646 9.62145 10.1192 9.54417L5.2397 5.84065C5.09425 5.76337 5.02241 5.58434 5.08779 5.43265C5.15316 5.28097 5.33219 5.20912 5.48388 5.2745L10.3634 8.97802C10.5181 9.04944 10.5833 9.22744 10.518 9.37912C10.4526 9.53081 10.2736 9.60265 10.1219 9.53727L10.5898 9.50854Z"
     fill="#222222"
     id="path4" />
</svg>
