# Godot OBJ Exporter v1.0
# Mesh: Cube

v -0.500000 -0.500000 0.500000
v 0.500000 -0.500000 0.500000
v -0.500000 0.500000 0.500000
v 0.500000 0.500000 0.500000
v -0.500000 0.500000 -0.500000
v 0.500000 0.500000 -0.500000
v -0.500000 -0.500000 -0.500000
v 0.500000 -0.500000 -0.500000

vn 0.000000 0.000000 1.000000
vn 0.000000 1.000000 0.000000
vn 0.000000 0.000000 -1.000000
vn 0.000000 -1.000000 0.000000
vn 1.000000 0.000000 0.000000
vn -1.000000 0.000000 0.000000

usemtl Material
f 1//1 2//1 4//1
f 4//1 3//1 1//1
f 3//2 4//2 6//2
f 6//2 5//2 3//2
f 5//3 6//3 8//3
f 8//3 7//3 5//3
f 7//4 8//4 2//4
f 2//4 1//4 7//4
f 2//5 8//5 6//5
f 6//5 4//5 2//5
f 7//6 1//6 3//6
f 3//6 5//6 7//6